HIERARCHY
ROOT Hips
{
	OFFSET 0.00000 0.00000 0.00000
	CHANNELS 6 Xposition Yposition Zposition Yrotation Zrotation Xrotation 
	JOINT Lumbar
	{
		OFFSET 0 0 0
		CHANNELS 3 Zrotation Xrotation Yrotation
		JOINT Neck
		{
			OFFSET 0.00 0.2701 0.00
			CHANNELS 3 Zrotation Xrotation Yrotation
			End Site
			{
				OFFSET 0.00 0.1379 0.00
			}
		}
		JOINT RightShoulder
		{
			OFFSET 0.0119 0.2289 0.1181
			CHANNELS 3 Zrotation Xrotation Yrotation
			JOINT RightElbow
			{
				OFFSET 0.00 -0.1475 0.00
				CHANNELS 2 Zrotation Yrotation
				JOINT RightWrist
				{
					OFFSET 0.00 -0.1605 0.00
					CHANNELS 2 Zrotation Xrotation
					End Site
					{
						OFFSET 0.0040 -0.1068 0.0006
					}
				}
			}
		}
		JOINT LeftShoulder
		{
			OFFSET 0.0119 0.2289 -0.1181
			CHANNELS 3 Zrotation Xrotation Yrotation
			JOINT LeftElbow
			{
				OFFSET 0.00 -0.1475 0.00
				CHANNELS 2 Zrotation Yrotation
				JOINT LeftWrist
				{
					OFFSET 0.00 -0.1605 0.00
					CHANNELS 2 Zrotation Xrotation
					End Site
					{
						OFFSET 0.0040 -0.1068 -0.0006
					}
				}
			}
		}
	}
	JOINT RightHip
	{
		OFFSET 0.0316 -0.0424 0.0458
		CHANNELS 3 Zrotation Xrotation Yrotation
		JOINT RightKnee
		{
			OFFSET 0.00 -0.2438 0.00
			CHANNELS 1 Zrotation
			JOINT RightAnkle
			{
				OFFSET 0.00 -0.2449 0.00
				CHANNELS 3 Zrotation Xrotation Yrotation
				End Site
				{
					OFFSET 0.1237 -0.0542 0.0051
				}
			}
		}
	}
	JOINT LeftHip
	{
		OFFSET 0.0316 -0.0424 -0.0458
		CHANNELS 3 Zrotation Xrotation Yrotation
		JOINT LeftKnee
		{
			OFFSET 0.00 -0.2438 0.00
			CHANNELS 1 Zrotation
			JOINT LeftAnkle
			{
				OFFSET 0.00 -0.2449 0.00
				CHANNELS 3 Zrotation Xrotation Yrotation
				End Site
				{
					OFFSET 0.1237 -0.0542 -0.0051
				}
			}
		}
	}
}
MOTION
Frames: 25
Frame Time: 0.02
-0.20413 -0.21966 0.16405 -10.11223 11.52858 -3.44577 22.09349 -6.03602 35.30065 -11.78983 25.50913 -2.11994 3.80477 16.21296 55.62966 51.86989 96.13557 24.73453 0.30684 -51.41279 2.15004 53.72291 79.82165 -51.18175 -27.02972 -2.27557 52.6424 10.27797 -25.95776 -15.7327 -27.70003 4.99655 0.12982 72.31805 6.62529 17.97119 -44.22267 -16.05935 1.36151 3.33077
-0.20446 -0.21996 0.16358 -9.77398 11.82944 -3.32965 21.5715 -6.05816 35.28284 -12.00753 25.44315 -2.11994 4.78456 16.19575 55.58199 52.03839 95.99149 24.97053 0.21579 -51.93674 2.5289 52.78146 79.65899 -52.09969 -25.69307 -2.33827 52.75765 9.78806 -24.98936 -16.60714 -26.32447 4.30279 -0.26735 72.61191 6.39511 18.20022 -43.87394 -16.17967 1.2004 3.25261
-0.20485 -0.22033 0.16303 -9.426 12.17079 -3.18133 20.99296 -6.0747 35.24302 -12.23043 25.35841 -2.11994 5.96384 16.17325 55.52224 52.27995 95.77799 25.29661 0.11019 -52.61286 2.92133 51.72701 79.50183 -53.18713 -24.02795 -2.43459 52.92593 9.23216 -24.00583 -17.6655 -24.12795 3.18506 -0.91499 72.90795 6.22833 18.53717 -43.24215 -16.45719 1.0407 3.18328
-0.20521 -0.22068 0.16251 -9.07745 12.49255 -3.04957 20.44301 -6.09234 35.19694 -12.46379 25.27821 -2.11994 7.06902 16.15501 55.47151 52.48765 95.53491 25.57435 0.00027 -53.24424 3.29889 50.71914 79.35716 -53.98427 -22.55258 -2.56113 53.0664 8.70586 -23.03441 -18.62944 -22.37971 2.29775 -1.42654 73.20825 6.03621 18.79759 -42.74893 -16.65324 0.88737 3.11326
-0.20559 -0.22099 0.162 -8.74881 12.82142 -2.90818 19.87701 -6.11729 35.224 -12.64235 25.21867 -2.11994 8.11589 16.13218 55.4068 52.68664 95.56235 25.89219 -0.06066 -53.78094 3.72359 49.71449 79.15313 -55.59472 -20.93283 -2.51084 53.22018 8.17893 -22.03481 -19.63913 -20.34477 1.26539 -2.02323 73.48961 5.82307 19.1685 -42.21404 -16.88808 0.70325 3.02844
-0.20594 -0.22139 0.16146 -8.37546 13.14374 -2.78102 19.3337 -6.12429 35.08754 -12.93798 25.10586 -2.11994 9.31988 16.11357 55.36713 52.93491 94.99326 26.13603 -0.23145 -54.54167 4.04231 48.69335 79.06788 -55.66117 -19.49954 -2.81816 53.36115 7.63843 -21.09182 -20.59911 -18.69809 0.42838 -2.50578 73.80957 5.67276 19.33753 -41.70264 -17.08115 0.584 2.9768
-0.20623 -0.22201 0.16087 -7.89761 13.44466 -2.68582 18.85233 -6.09448 34.55689 -13.53782 24.90338 -2.11994 10.99555 16.13608 55.40771 53.19036 92.96962 26.24987 -0.65926 -55.95996 4.15274 47.52271 79.36675 -50.45083 -18.99131 -4.26616 53.43701 7.07768 -20.31944 -21.35447 -18.35069 0.24207 -2.60796 74.2372 5.6606 18.914 -41.27613 -17.11632 0.64412 3.01524
-0.20649 -0.2227 0.16026 -7.37222 13.73591 -2.60908 18.39918 -6.04455 33.85272 -14.25835 24.63814 -2.11994 12.80383 16.15317 55.47071 53.51687 90.33663 26.2626 -1.20324 -57.58467 4.14024 46.36366 79.77435 -43.84187 -18.6266 -6.04474 53.50174 6.50569 -19.60378 -22.05799 -18.41339 0.26383 -2.58847 74.70286 5.71321 18.28422 -40.89191 -17.10527 0.76943 3.08673
-0.20677 -0.22336 0.15965 -6.85835 14.02735 -2.53366 17.94252 -5.99648 33.19409 -14.93534 24.36723 -2.11994 14.49659 16.16007 55.52028 53.87973 87.84065 26.26571 -1.72418 -59.06389 4.12498 45.28757 80.09484 -38.53622 -17.97329 -7.56345 53.58226 5.93853 -18.85595 -22.79876 -18.26709 0.18319 -2.62862 75.14961 5.75067 17.75744 -40.51941 -17.11845 0.86485 3.14285
-0.20704 -0.22402 0.15908 -6.38743 14.33899 -2.4154 17.44296 -5.97939 32.6757 -15.56534 24.24032 -2.11994 16.4377 16.23897 55.59009 53.94234 85.8458 26.52978 -2.1272 -60.76395 4.35395 43.83903 80.57506 -30.50094 -18.22849 -9.5378 53.61795 5.37028 -18.1336 -23.48546 -18.18832 0.12033 -2.65947 75.60336 5.7326 17.20219 -40.00488 -17.12332 0.96188 3.20093
-0.20731 -0.2247 0.15842 -5.81496 14.60448 -2.39207 17.04217 -5.89253 31.82386 -16.32111 23.79841 -2.11994 17.8803 16.14316 55.61448 54.6625 82.77265 26.19603 -2.79424 -62.05444 4.04964 43.16539 80.74782 -27.71218 -16.65866 -10.65174 53.74541 4.8024 -17.37297 -24.27351 -18.0767 0.07634 -2.677 76.05154 5.84141 16.64711 -39.8019 -17.13266 1.07046 3.26241
-0.20759 -0.22546 0.15754 -4.9815 14.75497 -2.61893 16.8914 -5.62258 30.09741 -17.40076 22.50595 -2.11994 17.99284 15.77215 55.57635 57.03538 75.90654 24.4956 -4.23881 -62.13297 2.26184 44.67481 80.0484 -40.65915 -9.76246 -9.21709 54.11383 4.23993 -16.48283 -25.32335 -17.77889 0.02626 -2.69136 76.4745 6.31445 16.22028 -40.43328 -17.1633 1.19978 3.32723
-0.20785 -0.22625 0.15656 -4.04606 14.85712 -2.94216 16.84259 -5.2824 28.04106 -18.60168 20.89844 -2.11994 17.57917 15.19051 55.47472 60.08946 68.13692 22.1563 -5.9305 -61.79679 -0.05018 46.95615 79.03467 -58.76919 -1.0704 -6.92192 54.57739 3.67858 -15.55366 -26.48147 -17.43724 -0.00856 -2.69458 76.89048 6.90779 15.78766 -41.38106 -17.19962 1.33754 3.39387
-0.20812 -0.227 0.15562 -3.15226 14.97477 -3.22642 16.75744 -4.9712 26.1331 -19.74304 19.43213 -2.11994 17.35893 14.56592 55.36281 62.93301 61.43894 19.92859 -7.4587 -61.67008 -2.09621 48.85381 78.1632 -73.9143 6.62905 -5.08096 55.0073 3.11561 -14.64963 -27.60967 -17.11627 -0.04349 -2.69916 77.31019 7.42539 15.30406 -42.19564 -17.2342 1.46834 3.45832
-0.20843 -0.22783 0.15473 -2.27675 15.12 -3.49126 16.62993 -4.67117 24.22448 -20.90733 17.97015 -2.11994 17.35356 14.51249 55.43453 65.38108 52.01017 18.41856 -9.20759 -61.46328 -4.26633 50.88858 77.29997 -91.60232 15.05688 -2.98568 55.39711 2.5556 -13.71843 -28.65605 -16.80499 -0.10021 -2.71527 77.7295 8.03141 15.03194 -42.96684 -17.26403 1.61479 3.5298
-0.20863 -0.22851 0.1537 -1.33945 15.1957 -3.81879 16.61592 -4.33212 22.24249 -22.05119 16.42743 -2.11994 16.75242 13.23716 55.08632 68.78845 47.96062 15.30534 -10.55335 -61.3205 -6.29759 52.8235 76.34103 -105.26296 22.41077 -1.21057 55.89225 1.99147 -12.83117 -29.89756 -16.45899 -0.11059 -2.70629 78.14671 8.48453 14.33033 -43.90296 -17.30529 1.72959 3.5865
-0.20855 -0.22879 0.1523 -0.25703 15.09724 -4.29929 16.87804 -3.89703 20.12831 -23.10689 14.72012 -2.11994 14.81804 8.49575 53.78141 74.89155 59.881 7.56031 -10.73202 -61.46825 -7.84409 54.27123 75.21627 -106.32999 26.22708 -0.53656 56.6628 1.402 -12.09771 -31.66543 -16.01781 0.00272 -2.63081 78.56579 8.45443 12.36167 -45.21707 -17.38015 1.75635 3.60287
-0.20835 -0.22891 0.15076 0.88406 14.92937 -4.83876 17.25289 -3.42634 17.95491 -24.13723 12.94672 -2.11994 12.26806 2.56528 52.02033 81.89397 77.09142 -1.70801 -10.49612 -61.69133 -9.22668 55.59527 74.00217 -103.21145 28.92267 -0.21186 57.53446 0.81089 -11.40561 -33.62322 -15.54328 0.16114 -2.53111 78.98131 8.27141 9.97743 -46.68531 -17.46591 1.75045 3.604
-0.20818 -0.2291 0.14929 1.9982 14.78939 -5.349 17.58426 -2.97552 15.81566 -25.18042 11.21553 -2.11994 9.8782 -2.73501 50.34597 88.34737 91.28422 -10.04182 -10.44332 -61.8709 -10.66655 56.99163 72.81341 -102.15407 32.22334 0.27899 58.35497 0.22971 -10.67882 -35.48554 -15.08842 0.29838 -2.44301 79.39489 8.17934 7.83861 -48.08376 -17.54465 1.75817 3.61127
-0.2081 -0.2293 0.14777 3.11653 14.66322 -5.87316 17.88707 -2.50622 13.63241 -26.22393 9.41989 -2.11994 7.97223 -8.44869 49.18126 95.42678 107.99696 -19.42138 -10.41563 -62.07554 -12.19915 58.34991 71.67531 -100.60635 35.19623 0.76946 59.20153 -0.3898 -10.01636 -37.39165 -14.61249 0.43953 -2.35172 79.8249 8.00276 5.46067 -49.49528 -17.63223 1.77108 3.62177
-0.20781 -0.22944 0.14633 4.23949 14.49235 -6.38071 18.27409 -2.06844 11.53336 -27.25719 7.74946 -2.11994 4.92273 -13.54722 46.8441 101.39468 120.77726 -26.97535 -10.24144 -62.25094 -13.49072 59.74433 70.41815 -99.01677 38.5448 1.16527 60.01566 -0.93041 -9.23205 -39.24854 -14.17394 0.58254 -2.26174 80.21788 7.96203 3.48223 -50.90817 -17.70399 1.76567 3.62209
-0.20704 -0.22944 0.14515 5.35404 14.21587 -6.83039 18.87153 -1.72215 9.66374 -28.28424 6.42143 -2.11994 -1.1558 -16.94573 41.412 104.16773 120.99745 -29.13275 -9.69952 -62.33108 -14.17176 61.29366 68.82689 -98.32572 43.34057 1.39303 60.72292 -1.24776 -8.08586 -40.93759 -13.83847 0.72297 -2.17941 80.5263 8.35286 2.70996 -52.31748 -17.72829 1.7145 3.59632
-0.20608 -0.22938 0.14405 6.47197 13.89692 -7.26017 19.54821 -1.41014 7.8861 -29.29818 5.22733 -2.11994 -8.35108 -19.63045 34.81231 105.76544 117.15953 -29.40411 -9.03601 -62.38051 -14.61034 62.87271 67.12712 -97.71037 48.51471 1.53211 61.39214 -1.48645 -6.81876 -42.5675 -13.54322 0.86273 -2.09978 80.79402 8.8815 2.35455 -53.71472 -17.73618 1.6466 3.56114
-0.20519 -0.22935 0.14292 7.59234 13.59704 -7.6973 20.18457 -1.08537 6.07925 -30.30719 3.98581 -2.11994 -15.02572 -22.44916 28.72461 107.84171 115.44928 -30.51139 -8.46837 -62.44345 -15.14756 64.42095 65.49451 -97.04431 53.42279 1.70189 62.07346 -1.76459 -5.61711 -44.21411 -13.2355 1.00084 -2.02008 81.06995 9.33401 1.80662 -55.09704 -17.75261 1.58829 3.53136
-0.20434 -0.22931 0.14179 8.69815 13.29551 -8.14462 20.84342 -0.74669 4.21597 -31.36172 2.68341 -2.11994 -21.80254 -26.10735 22.69121 110.20341 112.7207 -31.71974 -7.71199 -62.51061 -15.72852 66.04818 63.77689 -96.31516 58.70685 1.89926 62.78043 -2.02769 -4.37215 -45.90948 -12.90318 1.14981 -1.93415 81.391 9.83841 1.25444 -56.57458 -17.76601 1.52024 3.49628
